<?xml version="1.0" standalone="no"?>
<!DOCTYPE svg PUBLIC "-//W3C//DTD SVG 20010904//EN"
 "http://www.w3.org/TR/2001/REC-SVG-20010904/DTD/svg10.dtd">
<svg version="1.0" xmlns="http://www.w3.org/2000/svg"
 width="700.000000pt" height="700.000000pt" viewBox="0 0 700.000000 700.000000"
 preserveAspectRatio="xMidYMid meet">
<metadata>
Created by potrace 1.14, written by Peter Selinger 2001-2017
</metadata>
<g transform="translate(0.000000,700.000000) scale(0.100000,-0.100000)"
fill="#000000" stroke="none">
<path d="M3025 6684 c-11 -2 -46 -9 -78 -16 -32 -6 -60 -15 -63 -19 -3 -5 -14
-9 -24 -9 -34 0 -144 -74 -216 -145 -82 -81 -121 -146 -161 -265 -25 -75 -28
-99 -27 -205 0 -102 4 -131 25 -192 36 -100 83 -175 159 -252 91 -92 185 -144
320 -178 14 -3 423 -7 910 -9 487 -1 921 -5 965 -8 205 -14 396 -101 498 -225
54 -65 105 -174 123 -261 14 -70 19 -241 9 -317 -20 -148 -75 -335 -122 -411
-53 -87 -74 -114 -137 -177 -116 -116 -260 -192 -435 -230 -57 -13 -52 -12
-196 -31 -27 -4 -543 -8 -1145 -9 -602 -1 -1108 -5 -1125 -9 -118 -30 -156
-45 -235 -94 -105 -66 -196 -176 -243 -293 -20 -51 -72 -265 -103 -427 -3 -13
-25 -117 -50 -230 -42 -193 -79 -366 -88 -416 -2 -11 -9 -41 -15 -66 -5 -25
-12 -56 -15 -70 -2 -14 -31 -151 -65 -305 -57 -265 -87 -405 -96 -450 -3 -11
-11 -51 -19 -90 -9 -38 -17 -81 -20 -95 -2 -14 -9 -45 -15 -70 -20 -89 -23
-106 -26 -167 -8 -150 55 -303 175 -424 164 -165 322 -216 641 -207 145 5 174
9 248 33 207 70 365 231 427 435 11 38 30 126 48 220 2 14 14 70 26 125 11 55
23 111 25 125 3 14 14 70 26 125 11 55 23 111 25 125 3 14 14 70 25 125 12 55
22 107 24 115 52 268 81 354 157 454 62 83 138 144 238 193 88 43 49 41 680
47 228 3 431 7 450 9 19 3 67 7 105 11 39 4 81 9 95 11 14 2 41 7 60 9 42 7
85 14 122 22 15 3 30 5 33 5 2 0 19 5 37 10 18 5 47 12 63 15 17 2 38 7 47 10
9 3 25 7 35 9 34 7 288 93 353 120 319 133 591 309 811 526 188 187 301 340
419 574 103 203 174 402 206 575 3 14 9 41 14 60 10 39 10 38 41 230 32 194
32 499 1 655 -37 187 -69 284 -149 455 -144 307 -410 568 -738 727 -173 83
-449 167 -620 188 -22 2 -58 7 -80 10 -22 4 -60 9 -85 12 -52 7 -2245 13
-2275 7z"/>
<path d="M1001 6260 c-109 -37 -185 -124 -210 -240 -36 -167 53 -330 210 -385
62 -22 693 -22 766 0 118 35 204 145 207 267 5 154 -40 258 -142 327 -60 41
-86 44 -439 46 -297 2 -349 0 -392 -15z"/>
<path d="M1255 4913 c-85 -21 -168 -89 -212 -173 -25 -50 -28 -65 -28 -155 0
-89 3 -106 27 -151 34 -64 86 -116 146 -146 l47 -23 1485 0 1485 0 50 23 c28
13 71 46 97 73 149 159 107 434 -80 526 l-57 28 -1470 1 c-808 1 -1479 -1
-1490 -3z"/>
<path d="M222 3485 c-137 -43 -230 -178 -218 -317 10 -128 68 -222 170 -276
l51 -27 360 0 360 0 55 26 c115 54 172 142 171 266 -1 144 -60 254 -167 308
l-59 30 -340 2 c-267 2 -349 -1 -383 -12z"/>
</g>
</svg>
